#!OML:ASF F:\VICON\USERDATA\INSTALL\rory3\rory3.ASF
:FULLY-SPECIFIED
:DEGREES
834
root 0.321788 16.3129 17.1608 -151.711 -51.6964 -181.88
lowerback -15.478 2.44332 4.31436
upperback -6.57803 2.14169 -2.27901
thorax 1.93924 0.73586 -4.48546
lowerneck -12.5624 4.89965 0.804328
upperneck 19.0448 7.25146 -4.65297
head 8.1834 2.90165 -0.913855
rclavicle -4.43103e-014 -3.75703e-014
rhumerus -43.2504 -16.496 -68.4888
rradius 12.5719
rwrist 17.0068
rhand -1.74959 13.7271
rfingers 7.12502
rthumb 23.9135 -14.804
lclavicle -4.43103e-014 -3.75703e-014
lhumerus -45.7944 -2.71787 88.5098
lradius 81.4275
lwrist -34.8039
lhand 10.2332 15.9459
lfingers 7.12502
lthumb 35.3475 42.4201
rfemur 127.312 -162.24 -149.673
rtibia 52.1936
rfoot -36.012 -25.4661
rtoes -0.713278
lfemur -45.5863 7.8769 -12.2603
ltibia 60.0734
lfoot -23.1073 18.0512
ltoes 9.03672
835
root 0.326146 16.3346 17.0969 -151.786 -52.4482 -181.441
lowerback -15.3783 2.58226 4.85738
upperback -6.73057 2.2471 -2.31877
thorax 1.75467 0.767537 -4.82258
lowerneck -11.7941 4.88531 2.25882
upperneck 18.5239 7.14825 -5.84954
head 7.96888 2.86777 -1.57616
rclavicle -1.92231e-014 2.82274e-014
rhumerus -43.1098 -15.1704 -69.571
rradius 13.3758
rwrist 15.1134
rhand -1.19966 13.7738
rfingers 7.12502
rthumb 24.4408 -14.6871
lclavicle -1.92231e-014 2.82274e-014
lhumerus -45.9708 -3.3959 88.6686
lradius 81.6995
lwrist -33.5512
lhand 10.6456 16.0224
lfingers 7.12502
lthumb 35.7384 42.4028
rfemur 127.713 -162.694 -149.196
rtibia 51.5403
rfoot -39.3022 -24.4672
rtoes 6.04094
lfemur -47.3117 8.48129 -12.5689
ltibia 60.8528
lfoot -22.9748 17.1308
ltoes 9.09024
836
root 0.334179 16.3583 17.0215 -151.601 -53.3597 -181.555
lowerback -15.2815 2.58452 4.9135
upperback -6.70036 2.25695 -2.27055
thorax 1.73629 0.77759 -4.80296
lowerneck -13.5002 4.54256 0.921324
upperneck 20.0519 6.75037 -4.48497
head 8.67604 2.64511 -0.908925
rclavicle 5.93293e-014 2.17964e-014
rhumerus -42.7889 -13.5839 -70.5616
rradius 14.3594
rwrist 12.7369
rhand -0.609252 13.7902
rfingers 7.12502
rthumb 25.0067 -14.5931
lclavicle 5.93293e-014 2.17964e-014
lhumerus -45.8273 -3.96936 89.0523
lradius 81.7009
lwrist -32.5222
lhand 11.0807 15.5908
lfingers 7.12502
lthumb 36.1506 41.8701
rfemur 128.375 -163.306 -149.209
rtibia 50.9327
rfoot -39.7408 -25.5402
rtoes 5.5854
lfemur -48.7958 8.81037 -13.1849
ltibia 61.3973
lfoot -22.1342 16.7866
ltoes 5.66743
837
root 0.331842 16.3898 16.9412 -151.05 -53.6516 -182.127
lowerback -15.4095 2.50955 4.43005
upperback -6.52974 2.2315 -2.13834
thorax 1.96205 0.791167 -4.38666
lowerneck -13.8128 4.43745 0.802359
upperneck 20.0418 6.69561 -4.73907
head 8.73469 2.57995 -0.974413
rclavicle -3.20168e-014 -3.85145e-014
rhumerus -42.1363 -11.6707 -71.5717
rradius 15.2916
rwrist 10.3605
rhand -0.54327 13.7412
rfingers 7.12502
rthumb 25.0699 -14.6333
lclavicle -3.20168e-014 -3.85145e-014
lhumerus -45.61 -4.03674 89.4252
lradius 81.8684
lwrist -31.4646
lhand 11.7201 15.5385
lfingers 7.12502
lthumb 36.7559 41.6657
rfemur 129.105 -164.701 -149.975
rtibia 50.4132
rfoot -40.9341 -26.6247
rtoes 6.81371
lfemur -49.9944 9.47336 -14.4041
ltibia 61.7337
lfoot -21.4156 16.2851
ltoes 1.13113
838
root 0.32705 16.4224 16.8676 -150.215 -53.8342 -183.001
lowerback -15.5114 2.42713 3.78375
upperback -6.40746 2.21954 -2.07844
thorax 2.12125 0.806117 -3.95377
lowerneck -14.0334 4.36119 0.928406
upperneck 20.0321 6.65319 -5.13542
head 8.79085 2.52452 -1.12897
rclavicle -7.0817e-014 -4.58199e-014
rhumerus -41.6712 -10.5764 -71.9593
rradius 16.0888
rwrist 9.10936
rhand -0.531595 13.851
rfingers 7.12502
rthumb 25.0811 -14.5219
lclavicle -7.0817e-014 -4.58199e-014
lhumerus -45.5337 -4.32558 89.8319
lradius 82.1859
lwrist -30.2875
lhand 12.4161 16.0704
lfingers 7.12502
lthumb 37.4141 42.0266
rfemur 129.717 -166.017 -150.91
rtibia 49.9446
rfoot -41.8853 -27.5968
rtoes 7.88803
lfemur -51.145 9.90931 -15.8744
ltibia 61.9018
lfoot -20.5499 15.741
ltoes -3.66341
839
root 0.325017 16.4299 16.7954 -149.55 -54.0561 -183.731
lowerback -15.4449 2.51767 3.28465
upperback -6.38347 2.42258 -2.17574
thorax 2.11666 0.916285 -3.73789
lowerneck -13.9557 4.16936 1.20243
upperneck 19.8684 6.39949 -5.50615
head 8.73496 2.39509 -1.33075
rclavicle -5.807e-014 -2.74323e-014
rhumerus -41.4859 -9.78733 -72.3867
rradius 16.7259
rwrist 7.41679
rhand -0.456415 13.8094
rfingers 7.12502
rthumb 25.1531 -14.5534
lclavicle -5.807e-014 -2.74323e-014
lhumerus -45.5052 -4.97724 90.1587
lradius 82.3499
lwrist -29.2476
lhand 12.9316 15.969
lfingers 7.12502
lthumb 37.9012 41.795
rfemur 130.114 -166.442 -151.342
rtibia 49.5951
rfoot -42.4369 -27.7462
rtoes 8.64912
lfemur -52.3292 10.2287 -17.2827
ltibia 62.0904
lfoot -20.0102 15.2178
ltoes -7.64863
840
root 0.324882 16.4474 16.7061 -149.515 -54.4336 -183.817
lowerback -15.2765 2.64138 3.1164
upperback -6.39416 2.6226 -2.2115
thorax 2.02874 1.01924 -3.649
lowerneck -13.7596 4.01829 1.61615
upperneck 19.7318 6.16998 -5.8845
head 8.67015 2.28731 -1.55707
rclavicle 3.56322e-014 4.19436e-014
rhumerus -41.4848 -9.09504 -72.8212
rradius 17.4382
rwrist 5.67419
rhand -0.695894 14.0881
rfingers 7.12502
rthumb 24.9237 -14.3067
lclavicle 3.56322e-014 4.19436e-014
lhumerus -45.5091 -5.41457 90.2085
lradius 82.3006
lwrist -28.4678
lhand 13.4495 15.1138
lfingers 7.12502
lthumb 38.3902 40.8058
rfemur 130.946 -168.377 -151.889
rtibia 49.2203
rfoot -42.6586 -29.419
rtoes 7.77305
lfemur -53.3594 10.7717 -18.2398
ltibia 62.1883
lfoot -20.2214 13.9228
ltoes -8.08054
841
root 0.318354 16.4524 16.6334 -149.361 -54.8479 -183.711
lowerback -15.3195 2.70471 3.36929
upperback -6.44481 2.66627 -2.20673
thorax 2.01194 1.03491 -3.77959
lowerneck -14.0395 3.95508 1.72684
upperneck 19.9038 6.1064 -6.05985
head 8.78722 2.23704 -1.63838
rclavicle -2.72583e-014 6.75868e-015
rhumerus -41.2373 -8.14766 -73.2801
rradius 18.2734
rwrist 4.08649
rhand 0.0283493 13.9893
rfingers 7.12502
rthumb 25.6175 -14.3076
lclavicle -2.72583e-014 6.75868e-015
lhumerus -45.5462 -5.55981 90.1036
lradius 82.4388
lwrist -27.6977
lhand 14.1279 14.5625
lfingers 7.12502
lthumb 39.0301 40.0739
rfemur 131.224 -169.535 -151.964
rtibia 48.9709
rfoot -43.5146 -30.0693
rtoes 8.8877
lfemur -54.8271 11.2078 -19.2169
ltibia 62.3609
lfoot -20.1828 12.8394
ltoes -8.55913
842
root 0.315513 16.4593 16.558 -148.829 -55.0129 -184.491
lowerback -15.023 2.62315 2.89379
upperback -6.374 2.64837 -2.22929
thorax 1.90927 1.03863 -3.54312
lowerneck -14.4919 3.87403 1.48426
upperneck 20.2311 6.08021 -6.11296
head 8.97668 2.18004 -1.61419
rclavicle -4.50247e-014 1.37161e-014
rhumerus -40.8586 -6.77953 -73.8176
rradius 19.1377
rwrist 2.0497
rhand 2.8644 12.9104
rfingers 7.12502
rthumb 28.331 -14.9665
lclavicle -4.50247e-014 1.37161e-014
lhumerus -45.6266 -5.63033 90.1707
lradius 82.7618
lwrist -26.8163
lhand 14.7034 14.5398
lfingers 7.12502
lthumb 39.5723 39.8934
rfemur 131.829 -170.466 -152.659
rtibia 48.7847
rfoot -45.1635 -30.0664
rtoes 11.6039
lfemur -55.7253 11.5178 -20.7612
ltibia 62.376
lfoot -19.9642 12.2041
ltoes -11.6837
843
root 0.309344 16.4615 16.4966 -147.952 -55.0659 -185.4
lowerback -14.9563 2.60779 2.37888
upperback -6.36783 2.70392 -2.27544
thorax 1.86516 1.07371 -3.29208
lowerneck -14.5563 3.81291 1.3906
upperneck 20.1711 6.05519 -6.29038
head 8.97087 2.14241 -1.66097
rclavicle -5.48646e-014 -6.34123e-014
rhumerus -40.5307 -5.47932 -74.1484
rradius 19.9863
rwrist 0.352236
rhand 3.68911 12.4273
rfingers 7.12502
rthumb 29.1188 -15.3159
lclavicle -5.48646e-014 -6.34123e-014
lhumerus -45.6674 -5.48984 90.2806
lradius 82.9799
lwrist -26.159
lhand 15.0794 14.7037
lfingers 7.12502
lthumb 39.9264 39.9519
rfemur 131.984 -171.342 -153.409
rtibia 48.7537
rfoot -46.5745 -30.1272
rtoes 14.0476
lfemur -56.9163 11.5974 -22.4869
ltibia 62.3855
lfoot -19.7763 11.8409
ltoes -15.559
844
root 0.300982 16.4654 16.4192 -147.604 -55.2287 -185.963
lowerback -14.7206 2.64999 1.9781
upperback -6.30418 2.83232 -2.30027
thorax 1.7995 1.14931 -3.07525
lowerneck -14.6629 3.71577 1.48379
upperneck 20.1843 5.94046 -6.46302
head 8.99907 2.07574 -1.74799
rclavicle 1.23246e-014 -3.02153e-014
rhumerus -40.3389 -4.48457 -74.3582
rradius 20.7442
rwrist -0.82573
rhand -1.74128 14.0345
rfingers 7.12502
rthumb 23.9215 -14.4954
lclavicle 1.23246e-014 -3.02153e-014
lhumerus -46.1479 -6.36299 90.5164
lradius 83.5662
lwrist -25.1029
lhand 14.9991 15.307
lfingers 7.12502
lthumb 39.8508 40.5779
rfemur 132.513 -172.399 -153.942
rtibia 48.7266
rfoot -47.9039 -30.6828
rtoes 15.514
lfemur -57.6966 11.7618 -23.8811
ltibia 62.2692
lfoot -19.6475 11.3178
ltoes -18.9007
845
root 0.287913 16.4523 16.3904 -147.12 -55.3194 -186.008
lowerback -14.609 2.87065 2.5551
upperback -6.50558 3.03854 -2.48797
thorax 1.58017 1.22879 -3.57246
lowerneck -14.903 3.66288 1.50626
upperneck 20.3188 5.88756 -6.52743
head 9.09049 2.03732 -1.77791
rclavicle -3.04141e-014 -4.17448e-014
rhumerus -40.0977 -3.76847 -74.5781
rradius 21.4585
rwrist -1.83669
rhand -3.32889 14.8187
rfingers 7.12502
rthumb 22.3983 -13.9027
lclavicle -3.04141e-014 -4.17448e-014
lhumerus -46.9081 -7.64245 90.7257
lradius 84.4176
lwrist -23.8936
lhand 14.5877 16.1797
lfingers 7.12502
lthumb 39.4634 41.5654
rfemur 132.124 -172.879 -153.971
rtibia 48.7465
rfoot -48.3411 -30.9934
rtoes 15.8273
lfemur -59.2904 11.7741 -25.2977
ltibia 62.1849
lfoot -20.216 10.6098
ltoes -18.6004
846
root 0.272966 16.4581 16.3169 -147.294 -55.5524 -186.204
lowerback -14.1713 2.78327 2.57355
upperback -6.29833 2.95944 -2.37779
thorax 1.55407 1.20744 -3.48932
lowerneck -15.4761 3.63883 1.10592
upperneck 20.4948 5.95761 -6.45317
head 9.24733 2.03039 -1.67043
rclavicle 3.12092e-014 6.36111e-015
rhumerus -39.5911 -2.29198 -75.0002
rradius 22.4289
rwrist -3.80187
rhand -3.29578 14.7435
rfingers 7.12502
rthumb 22.4301 -13.9741
lclavicle 3.12092e-014 6.36111e-015
lhumerus -46.9735 -7.74441 90.8217
lradius 84.7138
lwrist -23.3771
lhand 14.3991 16.0972
lfingers 7.12502
lthumb 39.2857 41.5348
rfemur 132.985 -174.058 -154.302
rtibia 48.6696
rfoot -50.0673 -31.3869
rtoes 17.3306
lfemur -59.7959 12.2447 -26.6138
ltibia 61.9516
lfoot -20.541 10.0634
ltoes -20.0278
